<?xml version="1.0" encoding="utf-8"?>
<!-- Generator: Adobe Illustrator 24.1.2, SVG Export Plug-In . SVG Version: 6.00 Build 0)  -->
<svg version="1.1" id="Layer_1" xmlns="http://www.w3.org/2000/svg" xmlns:xlink="http://www.w3.org/1999/xlink" x="0px" y="0px"
	 viewBox="0 0 660 560" style="enable-background:new 0 0 660 560;" xml:space="preserve">
<style type="text/css">
	.st0{fill:url(#SVGID_1_);}
	.st1{fill:#F4C400;}
	.st2{fill:#4F1503;}
	.st3{fill:url(#SVGID_2_);}
	.st4{fill:#E6EA54;}
	.st5{fill:#0A0504;}
</style>
<g>
	
		<radialGradient id="SVGID_1_" cx="305.5789" cy="306.9684" r="71.3373" gradientTransform="matrix(1 0 0 0.81 0 58.324)" gradientUnits="userSpaceOnUse">
		<stop  offset="0" style="stop-color:#E59E03"/>
		<stop  offset="0.0464" style="stop-color:#E6A20D"/>
		<stop  offset="0.1256" style="stop-color:#E7AB28"/>
		<stop  offset="0.2281" style="stop-color:#E9BB54"/>
		<stop  offset="0.3497" style="stop-color:#EDD092"/>
		<stop  offset="0.4861" style="stop-color:#F1EBDF"/>
		<stop  offset="0.5179" style="stop-color:#F2F2F2"/>
		<stop  offset="0.5326" style="stop-color:#EEE9E1"/>
		<stop  offset="0.5824" style="stop-color:#E3CDAD"/>
		<stop  offset="0.6343" style="stop-color:#DAB47F"/>
		<stop  offset="0.6873" style="stop-color:#D19E58"/>
		<stop  offset="0.7416" style="stop-color:#CB8D38"/>
		<stop  offset="0.7978" style="stop-color:#C6801F"/>
		<stop  offset="0.8566" style="stop-color:#C2760E"/>
		<stop  offset="0.9196" style="stop-color:#C07103"/>
		<stop  offset="0.9944" style="stop-color:#BF6F00"/>
	</radialGradient>
	<path class="st0" d="M96.97,196.44v221.05h417.22V196.44H96.97z M238.99,371.01h99.03H238.99z"/>
	<rect x="96.64" y="417.95" class="st1" width="416.91" height="82.86"/>
	<path class="st2" d="M211.24,417.95H96.8v-42.44c1.4,0.61,2.81,1.09,4.23,1.45s2.84,0.62,4.29,0.5c5.1-1.78,10.1-12.78,14.88-5.59
		c0.91,2.52,2.11,1.53,3.33,0.6c0.61-0.46,1.22-0.87,1.84-1.24c0.57-0.41,1.14-0.78,1.73-1.13c0.59-0.33,1.2-0.63,1.81-0.88
		c2.72,0.13,5.55-0.1,8.45-0.46c0.72-0.09,1.45-0.19,2.19-0.31c1.76-1.13,3.45-2.37,5.13-3.55c0.56-0.39,1.12-0.78,1.69-1.16
		c4.06-4.05,14.06-10.05,16.09-1.3c0.28,0.67,0.53,1.32,0.76,2.02c0.66,1.74,1.16,3.63,1.73,5.08c0.17,0.46,0.34,0.92,0.49,1.46
		c0.48,1.3,0.84,2.79,1.06,4.48c0.32,0.69,0.63,1.42,0.93,2.19c0,0,3,1,5.03-0.7c0.7-0.19,1.41-0.41,2.12-0.63
		c4.27-1.34,8.69-2.86,12.63-0.93c0.73,0.36,1.44,0.83,2.13,1.45c2.1,8.82,9.1,8.82,16.53,12.45c0.52,0.47,0.98,0.94,1.41,1.43
		c0.43,0.49,0.82,1,1.17,1.53c0.35,0.53,0.66,1.09,0.93,1.67c3.07,3.73,6.07,5.73,4.82,11.84c0.49,0.46,1.05,0.84,1.6,1.2
		c0.58,0.46,1.22,0.84,1.92,1.15c8.73,3.55,18.73,0.55,27.73,3.55c-11,1-21,4-31.86,5.4C212.66,417.41,212.09,417.67,211.24,417.95z
		"/>
	<path class="st2" d="M399.47,417.95h114.44v-42.44c-1.4,0.61-2.81,1.09-4.23,1.45c-1.42,0.37-2.84,0.62-4.29,0.5
		c-5.1-1.78-10.1-12.78-14.88-5.59c-0.91,2.52-2.11,1.53-3.33,0.6c-0.61-0.46-1.22-0.87-1.84-1.24c-0.57-0.41-1.14-0.78-1.73-1.13
		c-0.59-0.33-1.2-0.63-1.81-0.88c-2.72,0.13-5.55-0.1-8.45-0.46c-0.72-0.09-1.45-0.19-2.19-0.31c-1.76-1.13-3.45-2.37-5.13-3.55
		c-0.56-0.39-1.12-0.78-1.69-1.16c-4.06-4.05-14.06-10.05-16.09-1.3c-0.28,0.67-0.53,1.32-0.76,2.02c-0.66,1.74-1.16,3.63-1.73,5.08
		c-0.17,0.46-0.34,0.92-0.49,1.46c-0.48,1.3-0.84,2.79-1.06,4.48c-0.32,0.69-0.63,1.42-0.93,2.19c0,0-3,1-5.03-0.7
		c-0.7-0.19-1.41-0.41-2.12-0.63c-4.27-1.34-8.69-2.86-12.63-0.93c-0.73,0.36-1.44,0.83-2.13,1.45c-2.1,8.82-9.1,8.82-16.53,12.45
		c-0.52,0.47-0.98,0.94-1.41,1.43c-0.43,0.49-0.82,1-1.17,1.53c-0.35,0.53-0.66,1.09-0.93,1.67c-3.07,3.73-6.07,5.73-4.82,11.84
		c-0.49,0.46-1.05,0.84-1.6,1.2c-0.58,0.46-1.22,0.84-1.92,1.15c-8.73,3.55-18.73,0.55-27.73,3.55c11,1,21,4,31.86,5.4
		C398.05,417.41,398.63,417.67,399.47,417.95z"/>
	<linearGradient id="SVGID_2_" gradientUnits="userSpaceOnUse" x1="272.7659" y1="399.6684" x2="346.0131" y2="399.6684">
		<stop  offset="0" style="stop-color:#A43260"/>
		<stop  offset="0.9944" style="stop-color:#FFFFFF"/>
	</linearGradient>
	<path class="st3" d="M309.39,380.41c-20.13,0-36.45,17.21-36.62,38.52h73.25C345.84,397.62,329.51,380.41,309.39,380.41z"/>
	<path class="st4" d="M272.89,417.95c0,0.11-0.01,0.21-0.01,0.32c0,0.84,0.03,1.68,0.08,2.51c2.43,5.91,11.35,3.91,11.35,7.91
		c0,2-5.95,1-8.46,3.85c0.19,0.72,0.51,1.43,0.86,2.14c3.27,5.41,10.82,4.33,15.91,7.7c0.57,0.38,1.1,0.8,1.6,1.31
		c-0.99,1-2.97,1-3.84,1.13c-0.68,0.06-1.33,0.15-1.87,0.42c-0.54,0.27-0.98,0.7-1.23,1.46c0.28,1,0.61,1.91,0.97,2.73
		s0.76,1.56,1.19,2.22c5.78,18.04,24.61,1.04,36.51-0.96c0-0.75-0.19-1.38-0.5-1.92c-0.31-0.55-0.75-1.02-1.25-1.45
		c-0.24-1.63-1.23-2.63-3.22-2.63c0.62-0.25,1.28-0.42,1.95-0.54c4.71-0.83,10.55,0.95,14.73-3.15c0.51-0.65,1-1.32,1.47-2.01
		c0.94-1.37,1.78-2.81,2.53-4.31c0.35-0.71,0.69-1.42,1-2.17c-1.84-4.82-6.8-2.82-9.77-5.82c3.97-3,9.91-1,12.53-5.91
		c0.06-0.83,0.08-1.67,0.08-2.51c0-0.11-0.01-0.21-0.01-0.32H272.89z"/>
	<path class="st5" d="M119.28,227.62c0,0.05-0.03,0.1-0.08,0.15c-0.29,0.03-0.62,0.07-0.97,0.12c-0.07,0.01-0.14,0.02-0.21,0.03
		c-0.26,0.04-0.53,0.06-0.81,0.05c-0.09,0-0.18-0.01-0.28-0.01c-1.56-0.37-2.51-0.1-3.53,0.49c-0.07,0.02-0.13,0.03-0.2,0.05
		c-0.13,0.03-0.26,0.05-0.4,0.08c-0.08,0-0.15,0-0.23,0c-0.12,0-0.25,0-0.37,0c-0.06,0-0.12,0-0.18,0c-0.07-0.03-0.13-0.06-0.2-0.09
		c-1.04-0.54-2.26-0.6-3.34-0.43c-0.08,0.01-0.15,0.03-0.23,0.04c0.01,0.04-0.46,0.04-0.61-0.03c-0.06-0.02-0.11-0.04-0.16-0.07
		c-0.09,0-0.18,0-0.27,0s-0.18,0.01-0.28,0.02c-0.08-0.02-0.14-0.05-0.21-0.07c-0.25-0.1-0.38-0.21-0.38-0.32
		c0-0.15,0.23-0.29,0.64-0.41c0.07-0.02,0.14-0.04,0.22-0.06c0.3,0.05,0.64,0.02,0.98-0.04c0.09-0.02,0.17-0.03,0.26-0.05
		c0.47-0.1,0.89-0.16,1.33-0.21c0.07-0.01,0.14-0.01,0.22-0.02c0.09,0.01,0.17,0.02,0.25,0.03c0.08,0.01,0.16,0.02,0.24,0.03
		c1.11,0.7,2.05,0.7,3.6,0.1c0.07-0.03,0.13-0.05,0.18-0.08c0.09-0.01,0.18-0.01,0.27-0.02s0.18-0.02,0.28-0.04
		c0.09,0.01,0.18,0.02,0.27,0.02c0.7,0.06,1.33,0.12,2.06,0.04c0.05,0.01,0.1,0.01,0.16,0.02
		C118.52,227.11,119.28,227.35,119.28,227.62z"/>
	<path class="st5" d="M143.12,214.75c0,0.1-0.03,0.21-0.08,0.31c-0.31,0.06-0.66,0.15-1.02,0.25c-0.07,0.02-0.15,0.04-0.22,0.06
		c-0.28,0.09-0.56,0.12-0.85,0.1c-0.1,0-0.19-0.01-0.29-0.02c-1.65-0.77-2.65-0.21-3.72,1.02c-0.07,0.03-0.14,0.07-0.21,0.1
		c-0.14,0.06-0.28,0.11-0.42,0.16c-0.08,0-0.16,0-0.24,0c-0.13,0-0.26,0-0.39-0.01c-0.06,0-0.13,0-0.19-0.01
		c-0.07-0.07-0.14-0.13-0.22-0.19c-1.1-1.12-2.38-1.26-3.53-0.9c-0.08,0.03-0.16,0.05-0.24,0.09c0.01,0.09-0.49,0.09-0.64-0.06
		c-0.06-0.04-0.12-0.08-0.17-0.14c-0.09,0-0.19,0-0.28,0.01c-0.1,0.01-0.2,0.03-0.3,0.05c-0.08-0.05-0.15-0.1-0.22-0.15
		c-0.26-0.21-0.4-0.44-0.4-0.67c0-0.31,0.24-0.6,0.67-0.86c0.07-0.04,0.15-0.09,0.23-0.13c0.32,0.1,0.67,0.04,1.03-0.09
		c0.09-0.03,0.18-0.07,0.27-0.11c0.5-0.21,0.95-0.34,1.4-0.43c0.08-0.02,0.15-0.03,0.23-0.04c0.09,0.03,0.18,0.05,0.27,0.07
		c0.09,0.02,0.17,0.04,0.26,0.07c1.17,1.46,2.17,1.46,3.8,0.22c0.07-0.05,0.13-0.11,0.19-0.17c0.09-0.01,0.19-0.03,0.28-0.05
		c0.1-0.02,0.19-0.05,0.29-0.07c0.1,0.02,0.19,0.03,0.28,0.05c0.74,0.13,1.4,0.25,2.18,0.08c0.06,0.01,0.11,0.03,0.16,0.04
		C142.31,213.68,143.12,214.19,143.12,214.75z"/>
	<path class="st5" d="M160.42,230.61c0,0.06-0.03,0.12-0.08,0.17c-0.3,0.03-0.64,0.08-1,0.14c-0.07,0.01-0.14,0.02-0.21,0.04
		c-0.27,0.05-0.55,0.07-0.83,0.06c-0.09,0-0.19-0.01-0.28-0.01c-1.61-0.44-2.59-0.12-3.64,0.58c-0.07,0.02-0.13,0.04-0.2,0.05
		c-0.14,0.03-0.27,0.07-0.41,0.09c-0.08,0-0.16,0-0.23,0c-0.13,0-0.26,0-0.38,0c-0.06,0-0.13,0-0.19,0
		c-0.07-0.04-0.14-0.07-0.21-0.11c-1.07-0.64-2.33-0.72-3.44-0.51c-0.08,0.01-0.16,0.03-0.24,0.05c0.01,0.05-0.47,0.05-0.63-0.04
		c-0.06-0.02-0.11-0.05-0.16-0.08c-0.09,0-0.18,0-0.28,0.01s-0.19,0.01-0.29,0.03c-0.08-0.03-0.15-0.06-0.21-0.09
		c-0.25-0.12-0.39-0.25-0.39-0.38c0-0.17,0.24-0.34,0.66-0.49c0.07-0.02,0.15-0.05,0.23-0.07c0.31,0.06,0.66,0.02,1.01-0.05
		c0.09-0.02,0.18-0.04,0.26-0.06c0.48-0.12,0.92-0.19,1.37-0.25c0.07-0.01,0.15-0.02,0.22-0.02c0.09,0.01,0.17,0.03,0.26,0.04
		c0.08,0.01,0.17,0.03,0.25,0.04c1.14,0.83,2.12,0.83,3.71,0.12c0.07-0.03,0.13-0.06,0.19-0.1c0.09-0.01,0.18-0.02,0.28-0.03
		c0.09-0.01,0.19-0.03,0.29-0.04c0.09,0.01,0.19,0.02,0.28,0.03c0.72,0.08,1.37,0.14,2.13,0.05c0.05,0.01,0.11,0.02,0.16,0.03
		C159.63,230.01,160.42,230.3,160.42,230.61z"/>
	<path class="st5" d="M174.63,208.4c0,0.07-0.02,0.14-0.05,0.21c-0.18,0.04-0.39,0.1-0.6,0.17c-0.04,0.01-0.09,0.03-0.13,0.04
		c-0.16,0.06-0.33,0.08-0.5,0.07c-0.06,0-0.11-0.01-0.17-0.01c-0.97-0.52-1.56-0.14-2.19,0.69c-0.04,0.02-0.08,0.04-0.12,0.06
		c-0.08,0.04-0.16,0.08-0.25,0.11c-0.05,0-0.09,0-0.14,0c-0.08,0-0.15,0-0.23,0c-0.04,0-0.08,0-0.11,0
		c-0.04-0.04-0.08-0.09-0.13-0.13c-0.65-0.76-1.4-0.85-2.07-0.61c-0.05,0.02-0.1,0.04-0.14,0.06c0.01,0.06-0.29,0.06-0.38-0.04
		c-0.04-0.03-0.07-0.06-0.1-0.09c-0.05,0-0.11,0-0.17,0.01c-0.06,0.01-0.11,0.02-0.17,0.03c-0.05-0.03-0.09-0.07-0.13-0.1
		c-0.15-0.14-0.24-0.29-0.24-0.45c0-0.21,0.14-0.41,0.4-0.58c0.04-0.03,0.09-0.06,0.14-0.09c0.19,0.07,0.4,0.03,0.61-0.06
		c0.05-0.02,0.11-0.05,0.16-0.07c0.29-0.14,0.56-0.23,0.82-0.29c0.04-0.01,0.09-0.02,0.13-0.03c0.05,0.02,0.11,0.03,0.16,0.05
		c0.05,0.02,0.1,0.03,0.15,0.05c0.69,0.99,1.28,0.99,2.23,0.15c0.04-0.04,0.08-0.07,0.11-0.12c0.05-0.01,0.11-0.02,0.17-0.03
		c0.06-0.01,0.11-0.03,0.17-0.05c0.06,0.01,0.11,0.02,0.17,0.03c0.44,0.09,0.82,0.17,1.28,0.05c0.03,0.01,0.06,0.02,0.1,0.03
		C174.16,207.68,174.63,208.02,174.63,208.4z"/>
	<path class="st5" d="M139.68,245.89c0,0.08-0.04,0.16-0.12,0.24c-0.47,0.04-1,0.12-1.55,0.2c-0.11,0.02-0.22,0.03-0.33,0.05
		c-0.42,0.07-0.86,0.09-1.3,0.08c-0.15,0-0.29-0.01-0.44-0.02c-2.5-0.61-4.02-0.16-5.65,0.81c-0.1,0.03-0.21,0.05-0.32,0.08
		c-0.21,0.05-0.42,0.09-0.64,0.13c-0.12,0-0.24,0-0.36,0c-0.2,0-0.4,0-0.6-0.01c-0.1,0-0.2,0-0.29,0c-0.11-0.05-0.21-0.1-0.33-0.15
		c-1.67-0.89-3.62-1-5.35-0.71c-0.12,0.02-0.25,0.04-0.37,0.07c0.02,0.07-0.74,0.07-0.98-0.05c-0.09-0.03-0.18-0.07-0.26-0.11
		c-0.14,0-0.29,0-0.43,0.01c-0.15,0.01-0.3,0.02-0.45,0.04c-0.12-0.04-0.23-0.08-0.33-0.12c-0.39-0.17-0.61-0.35-0.61-0.53
		c0-0.24,0.37-0.48,1.02-0.68c0.11-0.03,0.23-0.07,0.35-0.1c0.49,0.08,1.02,0.03,1.57-0.07c0.14-0.03,0.27-0.06,0.41-0.09
		c0.75-0.17,1.44-0.27,2.13-0.34c0.12-0.01,0.23-0.02,0.35-0.03c0.14,0.02,0.27,0.04,0.4,0.06c0.13,0.02,0.26,0.04,0.39,0.05
		c1.77,1.16,3.29,1.16,5.77,0.17c0.11-0.04,0.2-0.09,0.29-0.14c0.14-0.01,0.28-0.02,0.43-0.04c0.15-0.02,0.29-0.04,0.45-0.06
		c0.15,0.01,0.29,0.03,0.43,0.04c1.12,0.1,2.13,0.19,3.3,0.06c0.08,0.01,0.17,0.02,0.25,0.04
		C138.46,245.04,139.68,245.44,139.68,245.89z"/>
	<path class="st5" d="M182.44,245.98c0,0.06-0.03,0.12-0.09,0.17c-0.36,0.03-0.77,0.08-1.19,0.14c-0.08,0.01-0.17,0.02-0.26,0.04
		c-0.32,0.05-0.66,0.07-1,0.06c-0.11,0-0.23-0.01-0.34-0.01c-1.92-0.44-3.09-0.12-4.34,0.58c-0.08,0.02-0.16,0.04-0.24,0.05
		c-0.16,0.03-0.33,0.07-0.49,0.09c-0.09,0-0.19,0-0.28,0c-0.15,0-0.31,0-0.46,0c-0.08,0-0.15,0-0.23,0
		c-0.08-0.04-0.16-0.07-0.25-0.11c-1.28-0.64-2.78-0.72-4.11-0.51c-0.1,0.01-0.19,0.03-0.28,0.05c0.02,0.05-0.57,0.05-0.75-0.04
		c-0.07-0.02-0.14-0.05-0.2-0.08c-0.11,0-0.22,0-0.33,0.01s-0.23,0.01-0.35,0.03c-0.09-0.03-0.18-0.06-0.25-0.09
		c-0.3-0.12-0.47-0.25-0.47-0.38c0-0.18,0.28-0.34,0.78-0.49c0.08-0.02,0.17-0.05,0.27-0.07c0.37,0.06,0.78,0.02,1.2-0.05
		c0.1-0.02,0.21-0.04,0.32-0.06c0.58-0.12,1.1-0.19,1.64-0.25c0.09-0.01,0.18-0.02,0.27-0.03c0.11,0.01,0.21,0.03,0.31,0.04
		c0.1,0.01,0.2,0.03,0.3,0.04c1.36,0.83,2.53,0.83,4.43,0.12c0.08-0.03,0.16-0.06,0.23-0.1c0.11-0.01,0.22-0.02,0.33-0.03
		s0.23-0.03,0.34-0.04c0.11,0.01,0.22,0.02,0.33,0.03c0.86,0.08,1.63,0.14,2.54,0.05c0.06,0.01,0.13,0.02,0.19,0.03
		C181.51,245.37,182.44,245.66,182.44,245.98z"/>
	<path class="st5" d="M401.73,221.66c0,0.13-0.02,0.27-0.06,0.39c-0.22,0.07-0.48,0.19-0.74,0.32c-0.05,0.03-0.11,0.06-0.16,0.08
		c-0.2,0.12-0.41,0.15-0.62,0.13c-0.07,0-0.14-0.01-0.21-0.03c-1.19-0.99-1.91-0.27-2.69,1.32c-0.05,0.04-0.1,0.08-0.15,0.12
		c-0.1,0.08-0.2,0.15-0.31,0.2c-0.06,0-0.11,0-0.17,0c-0.1,0-0.19,0-0.28-0.01c-0.05,0-0.09,0-0.14-0.01
		c-0.05-0.08-0.1-0.17-0.16-0.25c-0.79-1.45-1.72-1.63-2.55-1.16c-0.06,0.03-0.12,0.07-0.18,0.11c0.01,0.12-0.35,0.12-0.47-0.08
		c-0.04-0.05-0.08-0.11-0.12-0.18c-0.07,0-0.14,0-0.21,0.01s-0.14,0.03-0.21,0.06c-0.06-0.06-0.11-0.13-0.16-0.2
		c-0.19-0.27-0.29-0.56-0.29-0.87c0-0.4,0.17-0.78,0.49-1.11c0.05-0.06,0.11-0.11,0.17-0.16c0.23,0.13,0.49,0.05,0.75-0.12
		c0.06-0.04,0.13-0.09,0.2-0.14c0.36-0.27,0.68-0.44,1.01-0.56c0.05-0.02,0.11-0.04,0.17-0.06c0.07,0.03,0.13,0.06,0.19,0.09
		s0.12,0.06,0.18,0.09c0.84,1.89,1.57,1.89,2.74,0.28c0.05-0.07,0.1-0.14,0.14-0.22c0.07-0.02,0.14-0.04,0.2-0.07
		c0.07-0.03,0.14-0.06,0.21-0.1c0.07,0.02,0.14,0.04,0.2,0.06c0.54,0.17,1.01,0.32,1.57,0.1c0.04,0.02,0.08,0.04,0.12,0.06
		C401.15,220.28,401.73,220.93,401.73,221.66z"/>
	<path class="st5" d="M446.93,237.61c0,0.05-0.03,0.1-0.09,0.14c-0.34,0.03-0.72,0.07-1.11,0.12c-0.08,0.01-0.16,0.02-0.24,0.03
		c-0.3,0.04-0.61,0.05-0.93,0.05c-0.11,0-0.21-0.01-0.32-0.01c-1.8-0.36-2.88-0.1-4.05,0.48c-0.08,0.02-0.15,0.03-0.23,0.04
		c-0.15,0.03-0.3,0.05-0.46,0.07c-0.09,0-0.17,0-0.26,0c-0.14,0-0.29,0-0.43,0c-0.07,0-0.14,0-0.21,0
		c-0.08-0.03-0.15-0.06-0.24-0.09c-1.2-0.53-2.6-0.59-3.84-0.42c-0.09,0.01-0.18,0.03-0.26,0.04c0.02,0.04-0.53,0.04-0.7-0.03
		c-0.07-0.02-0.13-0.04-0.18-0.06c-0.1,0-0.2,0-0.31,0c-0.11,0-0.21,0.01-0.32,0.02c-0.09-0.02-0.17-0.05-0.24-0.07
		c-0.28-0.1-0.44-0.2-0.44-0.31c0-0.14,0.26-0.28,0.73-0.4c0.08-0.02,0.16-0.04,0.25-0.06c0.35,0.05,0.73,0.02,1.12-0.04
		c0.1-0.02,0.2-0.03,0.29-0.05c0.54-0.1,1.03-0.16,1.53-0.2c0.08-0.01,0.17-0.01,0.25-0.02c0.1,0.01,0.2,0.02,0.29,0.03
		c0.09,0.01,0.19,0.02,0.28,0.03c1.27,0.68,2.36,0.68,4.14,0.1c0.08-0.03,0.15-0.05,0.21-0.08c0.1-0.01,0.2-0.01,0.31-0.02
		c0.1-0.01,0.21-0.02,0.32-0.04c0.1,0.01,0.21,0.02,0.31,0.02c0.81,0.06,1.52,0.11,2.37,0.04c0.06,0.01,0.12,0.01,0.18,0.02
		C446.05,237.11,446.93,237.35,446.93,237.61z"/>
	<path class="st5" d="M495.39,239.17c0,0.06-0.02,0.11-0.06,0.16c-0.21,0.03-0.45,0.08-0.7,0.13c-0.05,0.01-0.1,0.02-0.15,0.03
		c-0.19,0.05-0.39,0.06-0.59,0.06c-0.07,0-0.13-0.01-0.2-0.01c-1.14-0.41-1.83-0.11-2.57,0.55c-0.05,0.02-0.1,0.04-0.14,0.05
		c-0.1,0.03-0.19,0.06-0.29,0.08c-0.05,0-0.11,0-0.16,0c-0.09,0-0.18,0-0.27,0c-0.04,0-0.09,0-0.13,0c-0.05-0.03-0.1-0.07-0.15-0.1
		c-0.76-0.6-1.64-0.68-2.43-0.48c-0.06,0.01-0.11,0.03-0.17,0.05c0.01,0.05-0.33,0.05-0.44-0.03c-0.04-0.02-0.08-0.05-0.12-0.07
		c-0.06,0-0.13,0-0.2,0.01c-0.07,0.01-0.13,0.01-0.2,0.03c-0.05-0.03-0.1-0.05-0.15-0.08c-0.18-0.11-0.28-0.23-0.28-0.36
		c0-0.17,0.17-0.32,0.46-0.46c0.05-0.02,0.1-0.05,0.16-0.07c0.22,0.06,0.46,0.02,0.71-0.05c0.06-0.02,0.12-0.04,0.19-0.06
		c0.34-0.11,0.65-0.18,0.97-0.23c0.05-0.01,0.1-0.02,0.16-0.02c0.06,0.01,0.12,0.03,0.18,0.04c0.06,0.01,0.12,0.02,0.18,0.04
		c0.81,0.79,1.49,0.79,2.62,0.12c0.05-0.03,0.09-0.06,0.13-0.09c0.06-0.01,0.13-0.02,0.2-0.03c0.07-0.01,0.13-0.02,0.2-0.04
		c0.07,0.01,0.13,0.02,0.19,0.03c0.51,0.07,0.96,0.13,1.5,0.04c0.04,0.01,0.08,0.02,0.11,0.02
		C494.84,238.6,495.39,238.87,495.39,239.17z"/>
	<path class="st5" d="M451.24,217.19c0,0.06-0.03,0.12-0.08,0.17c-0.3,0.03-0.64,0.08-1,0.14c-0.07,0.01-0.14,0.02-0.22,0.04
		c-0.27,0.05-0.55,0.07-0.83,0.06c-0.09,0-0.19-0.01-0.28-0.01c-1.61-0.44-2.59-0.12-3.64,0.58c-0.07,0.02-0.14,0.04-0.2,0.05
		c-0.14,0.03-0.27,0.07-0.41,0.09c-0.08,0-0.16,0-0.23,0c-0.13,0-0.26,0-0.38,0c-0.06,0-0.13,0-0.19,0
		c-0.07-0.04-0.14-0.07-0.21-0.11c-1.07-0.64-2.33-0.72-3.45-0.51c-0.08,0.01-0.16,0.03-0.24,0.05c0.01,0.05-0.48,0.05-0.63-0.04
		c-0.06-0.02-0.11-0.05-0.16-0.08c-0.09,0-0.18,0-0.28,0.01c-0.09,0.01-0.19,0.01-0.29,0.03c-0.08-0.03-0.15-0.06-0.21-0.09
		c-0.25-0.12-0.39-0.25-0.39-0.38c0-0.17,0.24-0.34,0.66-0.49c0.07-0.02,0.15-0.05,0.23-0.07c0.31,0.06,0.66,0.02,1.01-0.05
		c0.09-0.02,0.18-0.04,0.26-0.06c0.48-0.12,0.92-0.19,1.37-0.25c0.07-0.01,0.15-0.02,0.22-0.02c0.09,0.01,0.18,0.03,0.26,0.04
		c0.08,0.01,0.17,0.03,0.25,0.04c1.14,0.83,2.12,0.83,3.71,0.12c0.07-0.03,0.13-0.06,0.19-0.1c0.09-0.01,0.18-0.02,0.28-0.03
		c0.09-0.01,0.19-0.03,0.29-0.04c0.09,0.01,0.19,0.02,0.28,0.03c0.72,0.08,1.37,0.14,2.13,0.05c0.05,0.01,0.11,0.02,0.16,0.03
		C450.46,216.59,451.24,216.88,451.24,217.19z"/>
	<path class="st5" d="M479.68,228.48c0,0.05-0.02,0.11-0.07,0.16c-0.26,0.03-0.55,0.08-0.85,0.13c-0.06,0.01-0.12,0.02-0.18,0.03
		c-0.23,0.05-0.47,0.06-0.71,0.05c-0.08,0-0.16-0.01-0.24-0.01c-1.37-0.4-2.2-0.11-3.09,0.53c-0.06,0.02-0.11,0.03-0.17,0.05
		c-0.12,0.03-0.23,0.06-0.35,0.08c-0.07,0-0.13,0-0.2,0c-0.11,0-0.22,0-0.33,0c-0.05,0-0.11,0-0.16,0c-0.06-0.03-0.12-0.07-0.18-0.1
		c-0.91-0.58-1.98-0.65-2.93-0.46c-0.07,0.01-0.13,0.03-0.2,0.04c0.01,0.05-0.4,0.05-0.53-0.03c-0.05-0.02-0.1-0.04-0.14-0.07
		c-0.08,0-0.16,0-0.24,0.01c-0.08,0-0.16,0.01-0.25,0.03c-0.07-0.03-0.13-0.05-0.18-0.08c-0.22-0.11-0.33-0.23-0.33-0.35
		c0-0.16,0.2-0.31,0.56-0.45c0.06-0.02,0.12-0.04,0.19-0.07c0.27,0.05,0.56,0.02,0.86-0.05c0.07-0.02,0.15-0.04,0.22-0.06
		c0.41-0.11,0.78-0.18,1.16-0.22c0.06-0.01,0.13-0.02,0.19-0.02c0.08,0.01,0.15,0.03,0.22,0.04c0.07,0.01,0.14,0.02,0.21,0.03
		c0.97,0.76,1.8,0.76,3.15,0.11c0.06-0.03,0.11-0.06,0.16-0.09c0.08-0.01,0.16-0.02,0.23-0.03c0.08-0.01,0.16-0.02,0.24-0.04
		c0.08,0.01,0.16,0.02,0.23,0.03c0.61,0.07,1.16,0.13,1.8,0.04c0.05,0.01,0.09,0.02,0.14,0.02
		C479.02,227.92,479.68,228.19,479.68,228.48z"/>
	<path class="st5" d="M466.35,254.5c0,0.08-0.04,0.16-0.12,0.24c-0.47,0.04-1,0.12-1.55,0.2c-0.11,0.02-0.22,0.03-0.33,0.05
		c-0.42,0.07-0.86,0.09-1.3,0.08c-0.15,0-0.29-0.01-0.44-0.02c-2.5-0.61-4.02-0.16-5.65,0.81c-0.1,0.03-0.21,0.05-0.32,0.08
		c-0.21,0.05-0.42,0.09-0.64,0.13c-0.12,0-0.24,0-0.36,0c-0.2,0-0.4,0-0.6-0.01c-0.1,0-0.2,0-0.29,0c-0.11-0.05-0.21-0.1-0.33-0.15
		c-1.67-0.89-3.62-1-5.35-0.71c-0.12,0.02-0.25,0.04-0.37,0.07c0.02,0.07-0.74,0.07-0.98-0.05c-0.09-0.03-0.18-0.07-0.26-0.11
		c-0.14,0-0.29,0-0.43,0.01s-0.3,0.02-0.45,0.04c-0.12-0.04-0.23-0.08-0.33-0.12c-0.39-0.17-0.61-0.35-0.61-0.53
		c0-0.24,0.37-0.48,1.02-0.68c0.11-0.03,0.23-0.07,0.35-0.1c0.49,0.08,1.02,0.03,1.57-0.07c0.14-0.03,0.27-0.06,0.41-0.09
		c0.75-0.17,1.44-0.27,2.13-0.34c0.12-0.01,0.23-0.02,0.35-0.03c0.14,0.02,0.27,0.04,0.4,0.06c0.13,0.02,0.26,0.04,0.39,0.05
		c1.77,1.16,3.29,1.16,5.77,0.17c0.11-0.04,0.2-0.09,0.29-0.14c0.14-0.01,0.28-0.02,0.43-0.04c0.15-0.02,0.29-0.04,0.45-0.06
		c0.15,0.01,0.29,0.03,0.43,0.04c1.12,0.1,2.13,0.19,3.3,0.06c0.08,0.01,0.17,0.02,0.25,0.04
		C465.13,253.66,466.35,254.06,466.35,254.5z"/>
</g>
</svg>
